<svg id="Layer_1" data-name="Layer 1" xmlns="http://www.w3.org/2000/svg" viewBox="0 0 100.9 249.37"><defs><style>.cls-1{fill:#424256;fill-rule:evenodd;}</style></defs><title>Widget_Body_Male</title><path class="cls-1" d="M953.63,438.94l-.34.23a.88.88,0,0,1-1.35-.37c-.76-1.8-1.69-3.55-1.79-5.56a7.35,7.35,0,0,1,0-1.23,1,1,0,0,1,.75-1c.36-.1.75.13,1,.59.07.1.14.19.24.33a1.08,1.08,0,0,0,.13-.84c-.05-1-.17-2-.19-3a19.05,19.05,0,0,1,.11-3.09,8.83,8.83,0,0,1,2.08-4.32,12.63,12.63,0,0,1,5.41-3.75,9.82,9.82,0,0,1,6.53-.13,13.45,13.45,0,0,1,4.46,2.42,9.24,9.24,0,0,1,2.67,3.61,8.94,8.94,0,0,1,.78,4c-.07,1.57-.1,3.15-.15,4.72,0,.18-.11.39.21.55l.32-.5a.7.7,0,0,1,.68-.41.69.69,0,0,1,.63.56,3.88,3.88,0,0,1,.08,1.21,16.36,16.36,0,0,1-1.24,4.47,10.25,10.25,0,0,0-.34,1c-.26.87-.52,1-1.47.85,0,.27-.09.54-.13.81-.1.79-.18,1.59-.3,2.37a8.26,8.26,0,0,1-.93,2.6,2,2,0,0,0-.27.71c-.09,1.09-.13,2.19-.2,3.29a.93.93,0,0,0,.41.89,15.62,15.62,0,0,0,1.35,1,19.7,19.7,0,0,0,6.27,2.66c.82.14,1.66.18,2.49.32,1.93.34,3.85.72,5.78,1.08a2.61,2.61,0,0,1,1,.44,18.44,18.44,0,0,0,1.71,1,10.29,10.29,0,0,1,3.09,2.9,15.09,15.09,0,0,1,.91,1.25,5.3,5.3,0,0,1,.6,1.14c.41,1.22.84,2.45,1.14,3.7.26,1.08.34,2.21.49,3.32,0,.26,0,.52,0,.77a12.3,12.3,0,0,1-.55,5.1,7.32,7.32,0,0,0,0,3.39c.28,1.68.61,3.35.86,5a25,25,0,0,1,.2,2.51c.1,2.11.14,4.23.29,6.33a19.64,19.64,0,0,0,.71,4.2c.5,1.7.87,3.42,1.22,5.15a45.91,45.91,0,0,1,.75,8c.07,2.93,0,5.86.07,8.8a53.77,53.77,0,0,0,.7,8.56c.08.49.12,1,.18,1.47,0,.21.07.42.11.64.17.86.37,1.72.5,2.59a1.59,1.59,0,0,0,.56,1c.73.63,1.45,1.29,2.18,1.93a5,5,0,0,1,1.17,1.53c.2.41.45.79.66,1.19a1.62,1.62,0,0,1,.21.6,2.48,2.48,0,0,0,.71,1.61c.38.41.66.91,1,1.33s.89,1,1.37,1.45a1.55,1.55,0,0,0,.58.27,1.91,1.91,0,0,1,1.12,1,.84.84,0,0,1-.5,1,2.64,2.64,0,0,1-1.9.12c-.69-.21-1.36-.51-2.11-.8,0,.37-.12.77-.14,1.16,0,1.21-.06,2.41-.11,3.62-.09,2.11-.17,4.22-.3,6.33a8.05,8.05,0,0,1-.39,2c-.33,1-1.14,1.14-1.9.41l-.3-.27c0,.24-.06.41-.08.57,0,.41-.05.82-.14,1.22a1,1,0,0,1-1,1,1.1,1.1,0,0,1-1.13-.87,10.22,10.22,0,0,1-.24-1.2c0-.2-.06-.41-.09-.61h-.13c0,.17,0,.34-.07.5a1.12,1.12,0,0,1-1,1,1,1,0,0,1-1.11-.7c-.27-.77-.44-1.57-.63-2.36a9.74,9.74,0,0,1-.13-1c-.14.17-.21.27-.29.35a.83.83,0,0,1-1.29-.08,3,3,0,0,1-.45-.92c-.56-2-1.1-4-1.66-6a9.87,9.87,0,0,0-.53-1.52,7.44,7.44,0,0,1-.67-2.94c-.06-1.72-.13-3.45-.1-5.17a6.66,6.66,0,0,1,.42-2.33,5.35,5.35,0,0,0,.24-2.6,39.13,39.13,0,0,0-2.71-10.41c-.92-2.4-1.89-4.77-2.86-7.14a38.78,38.78,0,0,1-2.48-9.4c-.18-1.32-.24-2.66-.32-4-.06-1-.07-2.06-.08-3.09,0-1.46,0-2.93-.06-4.38-.05-1.22-.21-2.44-.32-3.66l-.15,0a3.78,3.78,0,0,0-.17.36c-.39,1.05-.82,2.09-1.14,3.16a17.77,17.77,0,0,0-.48,2.33c-.29,1.76-.58,3.53-.82,5.3-.14,1-.17,2-.25,3a29.73,29.73,0,0,0,.36,5.53,24.87,24.87,0,0,1,0,7.09,10.4,10.4,0,0,0,0,3.28c.26,1.89.55,3.8.63,5.7a43.92,43.92,0,0,0,1.27,8.22,93.79,93.79,0,0,1,2,11.51c.24,2.25.31,4.52.41,6.78.06,1.31,0,2.63,0,3.95s-.12,2.85-.28,4.26c-.29,2.7-.62,5.4-1,8.09a99.19,99.19,0,0,1-2.45,12.1c-.31,1.16-.61,2.34-.82,3.52-.15.87-.15,1.76-.22,2.64-.13,1.59-.28,3.17-.38,4.76-.06.9,0,1.81,0,2.72s-.09,2-.1,3a11.52,11.52,0,0,0,.13,1.73c.29,2,.57,4,.91,5.94a67.85,67.85,0,0,1,.85,6.74,38.29,38.29,0,0,1-.11,7c-.18,1.54-.32,3.09-.58,4.61-.36,2.12-.82,4.23-1.23,6.34-.61,3.11-1.2,6.22-1.54,9.37-.18,1.69-.43,3.38-.63,5.06a16,16,0,0,0-.13,1.79c0,1.23,0,2.46,0,3.69,0,1,.15,1.93.2,2.9a3.56,3.56,0,0,1-.11,1.08.69.69,0,0,0,.07.61,21,21,0,0,0,3,4,8.74,8.74,0,0,0,1.2.88c1,.62,1.94,1.2,2.89,1.84a2.19,2.19,0,0,1,.76,2.93c-.05.11-.1.23-.16.39s-.37,0-.55,0l-3.82.06c-1.83,0-3.67,0-5.5.08a5.45,5.45,0,0,1-2.38-.51,2.7,2.7,0,0,0-1.25-.24,11.8,11.8,0,0,1-1.29,0,12.31,12.31,0,0,1-1.66-.2c-.36-.07-.72-.15-.84-.64-.08-.3-.46-.52-.57-.82a4.67,4.67,0,0,1-.34-1.56,7.45,7.45,0,0,1,.52-3,6.4,6.4,0,0,0,.51-3.47c-.12-1-.09-1.94-.18-2.9a6.78,6.78,0,0,1,.43-2.66,15.51,15.51,0,0,0,.63-4.53,45.21,45.21,0,0,0-.45-6.06c-.31-2.46-.62-4.92-1-7.37-.47-3.19-.93-6.39-1.63-9.55a21.53,21.53,0,0,1-.44-3.78,48.7,48.7,0,0,1,.47-8.51c.27-2,.46-4,.63-6a3.69,3.69,0,0,0-.2-1.58,46.79,46.79,0,0,1-2.07-9.38c-.13-.79-.3-1.57-.38-2.36-.12-1.24-.21-2.49-.25-3.74-.07-2.29-.07-4.57-.16-6.86a64.17,64.17,0,0,0-.94-8.28c-.53-3.08-1.14-6.15-1.53-9.24-.28-2.22-.31-4.47-.37-6.71,0-1.42.06-2.84.09-4.27,0-.88,0-1.77,0-2.65a.78.78,0,0,0-.1-.37,12.35,12.35,0,0,0-1-1.63c0,.28-.06.56-.09.84a39,39,0,0,0,0,6.2c.08,1.81.15,3.62.09,5.43s-.2,3.66-.42,5.48c-.3,2.57-.74,5.12-1,7.68a24.78,24.78,0,0,0-.12,3.16c0,1.88.07,3.75.11,5.63q0,1.68.07,3.36a46,46,0,0,1-.68,7.72c-.2,1.36-.35,2.73-.59,4.09-.19,1.1-.43,2.2-.71,3.28a10,10,0,0,0-.27,4.29c.37,2.21.78,4.41,1.16,6.62a41.85,41.85,0,0,1,.67,7.72c0,1.27-.16,2.54-.24,3.81s-.16,2.28-.24,3.42c-.16,2.45-.33,4.9-.46,7.36-.08,1.55-.07,3.1-.13,4.65a36.83,36.83,0,0,0,.34,4.25,26.72,26.72,0,0,0,.82,5c.14.5.39,1,.55,1.45a7.91,7.91,0,0,1,.64,2.53c0,.66,0,1.32,0,2a22.43,22.43,0,0,0,.13,2.7,23.42,23.42,0,0,1,.33,4.24,11,11,0,0,0,.19,2.37,3.23,3.23,0,0,1-.73,2.65,2.26,2.26,0,0,1-1.23.63,14.87,14.87,0,0,1-4,.48c-2-.11-4-.1-6-.1a1.18,1.18,0,0,1-1.21-.76c-.1-.24-.21-.48-.33-.7a1.88,1.88,0,0,1,0-1.85,3.53,3.53,0,0,1,.81-1.08,8.65,8.65,0,0,0,2.08-3.08c.08-.17.14-.36.23-.53a4.12,4.12,0,0,0,.14-3.51,8,8,0,0,1-.44-3.17,35.47,35.47,0,0,0-.13-4,57.12,57.12,0,0,0-2.06-10.05c-.89-3.37-1.89-6.72-2.94-10.05a87.05,87.05,0,0,1-2.17-9.37,30,30,0,0,1-.47-6.11c0-1.54.25-3.09.4-4.63.19-1.86.42-3.72.6-5.58.1-1.07.14-2.15.19-3.23a8.8,8.8,0,0,0,0-1c-.11-1.68-.21-3.36-.33-5-.09-1.24-.23-2.49-.35-3.73-.16-1.63-.34-3.26-.5-4.89a49.39,49.39,0,0,0-1.21-6.93c-.86-3.56-1.69-7.12-2.39-10.72-.53-2.75-.87-5.53-1.24-8.31-.22-1.69-.39-3.38-.47-5.08a47.71,47.71,0,0,1,.14-7.37c.25-2.38.55-4.75.84-7.12a52.66,52.66,0,0,1,1.21-6.14,25.59,25.59,0,0,0,.58-4.15,28.2,28.2,0,0,1,1.79-8,12.6,12.6,0,0,0,.95-5,12.08,12.08,0,0,1,.6-3.56c.25-.94.5-1.87.72-2.82a9.79,9.79,0,0,0,.09-3.35c-.15-1.3-.43-2.59-.68-3.88a17.21,17.21,0,0,0-1.76-4.71,41.19,41.19,0,0,1-2.59-6.2,1.38,1.38,0,0,0-.37-.62c-.21.91-.44,1.83-.64,2.74-.37,1.68-.61,3.39-.83,5.1s-.35,3.68-.5,5.53A43,43,0,0,1,935.3,510a61.18,61.18,0,0,1-4.55,11.18c-1.14,2.32-2.32,4.62-3.44,7a21.71,21.71,0,0,0-1.89,6,3,3,0,0,0,.21,2,6.9,6.9,0,0,1,.64,2.42,21.35,21.35,0,0,1-.18,4.64c-.05.64-.11,1.29-.18,1.93a6.61,6.61,0,0,1-.93,2.6,14.74,14.74,0,0,0-1.33,3.69q-.47,1.78-1,3.54a3.92,3.92,0,0,1-.44.86.84.84,0,0,1-.86.45.74.74,0,0,1-.69-.66,1.83,1.83,0,0,0-.17-.31c-.06.49-.09.85-.16,1.21a21.37,21.37,0,0,1-.52,2.19,1,1,0,0,1-1,.82,1.07,1.07,0,0,1-1.16-.73,2.41,2.41,0,0,0-.12-.23l-.45,1.17a1.19,1.19,0,0,1-.71.71.9.9,0,0,1-1.26-.53,1.77,1.77,0,0,1-.14-.56c0-.95-.11-1.89-.11-2.84,0-1.1.06-2.2.09-3.3a.73.73,0,0,0-.09-.36,2.39,2.39,0,0,0-.3,1.19c0,.62,0,1.25-.1,1.87a5.79,5.79,0,0,1-.34,1.1,1.22,1.22,0,0,1-1.22.78.76.76,0,0,1-.85-.78,17.92,17.92,0,0,1-.18-2.83c.1-1.91.33-3.82.48-5.73.08-1,.12-2.06.19-3.17a5.38,5.38,0,0,0-.64.07,1.77,1.77,0,0,1-1.31-.2.89.89,0,0,1-.26-1.45.66.66,0,0,1,.2-.16,6.45,6.45,0,0,0,1.48-1.18,4.79,4.79,0,0,0,1.64-3.07,7.76,7.76,0,0,1,2.38-4.68c.25-.24.48-.5.74-.72a3.18,3.18,0,0,0,1-1.83c.42-1.78.87-3.56,1.24-5.35a73.47,73.47,0,0,0,1.29-7.77c.21-2,.48-4.06.71-6.1.15-1.28.25-2.57.44-3.85.26-1.75.56-3.48.88-5.22a11.67,11.67,0,0,1,.43-1.49c.58-1.8,1.23-3.59,1.74-5.41a23,23,0,0,0,.67-3.61c.2-1.77.3-3.56.42-5.34.09-1.33.08-2.68.25-4a37.83,37.83,0,0,1,.76-4c.27-1.15.65-2.28,1-3.41a3.71,3.71,0,0,0,.11-1.59,20.53,20.53,0,0,1-.27-3.34,29.68,29.68,0,0,1,.48-3.45,23.22,23.22,0,0,1,1.36-4.71,14,14,0,0,1,1.77-3.07,12.09,12.09,0,0,1,5.15-3.76,33.05,33.05,0,0,1,6.8-2,19.11,19.11,0,0,0,4.28-1.61c1.56-.77,3.1-1.61,4.64-2.42a6.91,6.91,0,0,0,2.31-1.94,1.27,1.27,0,0,0,.27-.69,23.4,23.4,0,0,0-.37-5.86c-.18-.75-.19-1.54-.3-2.3A5.11,5.11,0,0,0,953.63,438.94Z" transform="translate(-910.08 -416.32)"/></svg>